<svg xmlns="http://www.w3.org/2000/svg" viewBox="0 0 32 32">
  <path fill="#25D366"
    d="M19.11 17.79c-.27-.14-1.61-.79-1.86-.88-.25-.09-.43-.14-.61.14-.18.27-.7.88-.86 1.06-.16.18-.32.2-.59.07-.27-.14-1.13-.42-2.15-1.34-.79-.7-1.33-1.57-1.49-1.84-.16-.27-.02-.41.12-.55.13-.13.27-.32.41-.48.14-.16.18-.27.27-.45.09-.18.05-.34-.02-.48-.07-.14-.61-1.48-.84-2.03-.22-.53-.45-.46-.61-.46-.16 0-.34-.02-.52-.02s-.48.07-.73.34c-.25.27-.96.93-.96 2.27s.98 2.64 1.12 2.82c.14.18 1.93 2.95 4.68 4.13.65.28 1.15.45 1.54.58.65.21 1.24.18 1.71.11.52-.08 1.61-.66 1.84-1.29.23-.63.23-1.17.16-1.29-.07-.11-.25-.18-.52-.32z"/>
  <path fill="#25D366"
    d="M16.02 3.2c-7.07 0-12.8 5.73-12.8 12.8 0 2.26.59 4.47 1.71 6.42L3 29l6.77-1.78c1.88 1.02 4 1.56 6.25 1.56 7.07 0 12.8-5.73 12.8-12.8S23.09 3.2 16.02 3.2zm0 23.02c-2.05 0-4.06-.55-5.82-1.6l-.42-.25-4.02 1.06 1.07-3.91-.27-.44c-1.07-1.75-1.63-3.77-1.63-5.83 0-6.07 4.93-11 11-11s11 4.93 11 11-4.93 11-11 11z"/>
</svg>
